<svg width="84" height="58" viewBox="0 0 84 58" fill="none" xmlns="http://www.w3.org/2000/svg">
<rect x="0.5" y="0.5" width="83" height="57" rx="3.5" fill="#FA82A0" stroke="#F3F3F3"/>
<path d="M32.5801 36.6997C32.7065 41.9549 36.9257 46.1163 42.007 45.9975H42.1564C49.2611 45.9975 52.3074 41.6459 52.8937 35.2016C53.2042 33.6678 52.8249 32.0745 51.8821 30.85C51.5833 30.4694 51.1809 30.2079 50.7211 30.1008L49.5599 29.8037L52.319 15.7023C52.5834 14.1091 51.6521 12.5516 50.1461 12.0997C48.4677 11.6717 46.7663 12.6586 46.2261 14.3469L43.7543 23.1929L41.7195 14.4896C41.5701 13.6811 41.0988 12.9677 40.4089 12.5397C39.7191 12.0879 38.8914 11.9333 38.0867 12.0879C37.305 12.3019 36.6382 12.8369 36.2244 13.5741C35.8221 14.3112 35.707 15.1792 35.9254 15.9877L37.0866 25.8918C36.2359 24.8218 34.7529 24.5602 33.6032 25.2974L33.4538 25.44C32.2008 26.4983 31.8903 28.353 32.7295 29.7918C32.0053 29.8037 31.3155 30.1246 30.8441 30.6953L30.6947 30.8381C29.5796 32.3361 29.8325 34.4763 31.2695 35.6415L32.5801 36.6997ZM50.5715 31.4444C50.7211 31.4444 50.859 31.5989 51.0084 31.7417C51.5833 32.7285 51.7902 33.9056 51.5833 35.0471C51.1464 41.0513 48.3874 44.654 42.1564 44.654C38.2706 44.7492 34.8678 41.9787 34.0286 38.0551L35.0402 39.1014C36.1784 40.2309 37.9719 40.2309 39.0983 39.1014L39.2479 38.9469C40.0986 38.0194 40.271 36.6283 39.6848 35.4989C39.8342 35.4989 39.8342 35.3442 39.9721 35.3442L40.1217 35.1897C40.4089 34.8924 40.6964 34.7379 40.8458 34.286C41.3287 34.5953 41.8804 34.8093 42.4439 34.8805L44.1796 35.3323C42.7196 36.2478 41.8804 37.9244 42.007 39.6841C42.0643 40.0169 42.2828 40.3023 42.5817 40.433C42.9036 40.3735 43.1795 40.1476 43.3061 39.8386C43.214 38.3643 44.0187 36.9851 45.3408 36.3906C45.9386 36.1409 46.5824 36.0457 47.2262 36.0933H47.3756C48.2493 36.2478 48.3874 35.0471 47.663 34.7379L42.7311 33.5371C42.1449 33.4419 41.5931 33.1803 41.1333 32.788C41.1333 32.6335 40.9837 32.6335 40.8458 32.6335C40.3171 32.0745 40.1905 31.2185 40.5583 30.5289C40.7079 29.9701 41.1678 29.554 41.7195 29.4826C42.0874 29.3281 42.5012 29.3281 42.8807 29.4826H43.168L50.5715 31.4444ZM38.5351 13.2887C38.995 13.1698 39.4779 13.2768 39.8457 13.586C40.2595 13.8356 40.5355 14.2875 40.5698 14.7868L43.0416 25.8918V26.1891L43.191 26.3436L43.3404 26.4983H43.7773C43.9269 26.4983 43.9269 26.4983 43.9269 26.3436L44.0763 26.1891V26.0346L47.2722 14.7868C47.3986 14.2875 47.7206 13.8594 48.1574 13.6097C48.5943 13.3601 49.1115 13.2887 49.5944 13.4433C50.0198 13.5622 50.3761 13.8475 50.5945 14.2399C50.8129 14.6323 50.8705 15.096 50.7556 15.5359L47.9963 29.6371L43.0646 28.4363H42.7772C42.2024 28.2816 41.6046 28.2816 41.0412 28.4363C40.3514 28.5552 39.7767 28.9356 39.3973 29.4945L38.673 27.9964L37.2245 15.845V15.6905C37.0636 14.6798 37.6038 13.6811 38.5351 13.2887ZM34.178 26.4983C35.1898 25.9037 36.0635 26.201 36.9372 27.5446L37.6614 28.5909V28.7454L39.1099 30.9926C38.9144 31.9319 39.1329 32.9187 39.6848 33.6916C39.5352 33.8461 39.3973 34.1434 39.2479 34.286L39.0983 34.4406C38.3742 34.9162 37.4084 34.726 36.9257 33.9887L34.1666 29.6371C33.3159 28.2935 33.4538 26.9383 34.178 26.4983ZM31.7179 31.5989C32.2353 30.9926 33.0975 30.8738 33.7526 31.3018L35.7875 34.4525C36.2934 35.2849 37.167 35.7841 38.1097 35.8079C38.6845 36.4381 38.6845 37.425 38.1097 38.0551C37.5005 38.6496 36.5462 38.6496 35.9369 38.0551L32.4537 34.4525C31.281 33.5488 31.1316 32.1935 31.7179 31.5989Z" fill="white"/>
</svg>
