<svg width="84" height="58" viewBox="0 0 84 58" fill="none" xmlns="http://www.w3.org/2000/svg">
<rect x="0.5" y="0.5" width="83" height="57" rx="3.5" fill="#C2FAE5" stroke="#F3F3F3"/>
<path d="M10.255 29.2561C10.255 27.9751 9.29569 27.0752 8.11696 27.0752C6.93822 27.0752 5.97889 27.9907 5.97889 29.2561C5.97889 30.5066 6.93822 31.4364 8.11696 31.4364C9.29712 31.4364 10.255 30.5372 10.255 29.2561ZM10.2722 33.0681V32.077C9.69075 32.7631 8.82462 33.1892 7.78857 33.1892C5.63474 33.1892 4 31.5119 4 29.2561C4 27.0146 5.69711 25.3074 7.83661 25.3074C8.84327 25.3074 9.69146 25.7349 10.2729 26.4047V25.4442H12.2067V33.0681H10.2722ZM21.5978 31.3751C20.921 31.3751 20.7331 31.1315 20.7331 30.4916V27.1065H21.9756V25.4435H20.7331V23.5839H18.7513V25.4435H16.1989V24.9804C16.1989 24.3391 16.4512 24.0947 17.1431 24.0947H17.5776V22.6163H16.624C14.9893 22.6163 14.2193 23.135 14.2193 24.7203V25.4428H13.1187V27.1065H14.2193V33.0674H16.201V27.1065H18.7535V30.8422C18.7535 32.3976 19.3658 33.0688 20.969 33.0688H21.9914V31.3759H21.5971L21.5978 31.3751ZM28.7039 28.5693C28.5626 27.5789 27.7288 26.984 26.7544 26.984C25.7793 26.984 24.9777 27.5632 24.7741 28.5693H28.7032H28.7039ZM24.7576 29.7592C24.8995 30.8871 25.7327 31.5283 26.7859 31.5283C27.6191 31.5283 28.2644 31.1464 28.6408 30.5365H30.6699C30.1974 32.1525 28.7039 33.1892 26.7386 33.1892C24.3654 33.1892 22.6991 31.5739 22.6991 29.2711C22.6991 26.969 24.46 25.3067 26.7874 25.3067C29.1298 25.3067 30.8269 26.984 30.8269 29.2711C30.8269 29.4393 30.8118 29.606 30.7803 29.7592H24.7576ZM43.4251 29.2561C43.4251 28.0207 42.4658 27.0752 41.2871 27.0752C40.1083 27.0752 39.149 27.9907 39.149 29.2561C39.149 30.5066 40.1083 31.4364 41.2871 31.4364C42.4658 31.4364 43.4251 30.4916 43.4251 29.2561ZM37.1988 25.4442H39.1325V26.4353C39.7133 25.7335 40.5779 25.3074 41.6161 25.3074C43.7384 25.3074 45.404 27.0004 45.404 29.2405C45.404 31.4827 43.7069 33.1906 41.5688 33.1906C40.5779 33.1906 39.7606 32.8087 39.1956 32.1689V36.2052H37.1988V25.4442ZM52.3731 29.2561C52.3731 27.9751 51.4152 27.0752 50.2351 27.0752C49.0564 27.0752 48.097 27.9907 48.097 29.2561C48.097 30.5066 49.0564 31.4364 50.2351 31.4364C51.4152 31.4364 52.3731 30.5372 52.3731 29.2561ZM52.3904 33.0681V32.077C51.8089 32.7631 50.9428 33.1892 49.9067 33.1892C47.7529 33.1892 46.1181 31.5119 46.1181 29.2561C46.1181 27.0146 47.8152 25.3074 49.954 25.3074C50.96 25.3074 51.8089 25.7349 52.3904 26.4047V25.4442H54.3234V33.0681H52.3904ZM33.7142 26.1917C33.7142 26.1917 34.2061 25.3081 35.4113 25.3081C35.9268 25.3081 36.2602 25.4791 36.2602 25.4791V27.4243C36.2602 27.4243 35.5332 26.989 34.865 27.0766C34.1967 27.1642 33.7744 27.7592 33.7766 28.5558V33.0695H31.7805V25.4457H33.7142V26.1917ZM63.3531 25.4442L58.4719 36.181H56.4134L58.3299 32.0299L55.0891 25.4442H57.4222L59.3179 29.8447L61.2631 25.4442H63.3531ZM78.9355 25.2711L74.0958 22.5629C72.6761 21.7677 70.9002 22.7609 70.9002 24.3527V24.6306C70.9002 24.8814 71.0385 25.1136 71.2622 25.2383L72.1764 25.7499C72.4446 25.901 72.7787 25.7129 72.7787 25.4129V24.7218C72.7787 24.3762 73.1644 24.1596 73.4727 24.3327L77.6642 26.6797C77.9725 26.8521 77.9725 27.2839 77.6642 27.4564L73.4727 29.8026C73.1644 29.9751 72.7794 29.7599 72.7794 29.4136V29.046C72.7794 27.4549 71.0034 26.4596 69.5816 27.2561L64.7419 29.9651C64.4193 30.1412 64.1501 30.4002 63.9627 30.7151C63.7752 31.03 63.6763 31.3891 63.6763 31.7549C63.6763 32.1207 63.7752 32.4799 63.9627 32.7947C64.1501 33.1096 64.4193 33.3686 64.7419 33.5447L69.5816 36.253C71.002 37.0481 72.7794 36.0549 72.7794 34.4632V34.1853C72.7786 34.0611 72.7445 33.9394 72.6808 33.8326C72.617 33.7258 72.5259 33.6378 72.4166 33.5775L71.5032 33.0645C71.235 32.9142 70.9002 33.1023 70.9002 33.4022V34.0934C70.9002 34.4389 70.5144 34.6548 70.2068 34.4817L66.0146 32.1354C65.9446 32.097 65.8863 32.0408 65.8457 31.9724C65.8051 31.904 65.7837 31.8261 65.7837 31.7467C65.7837 31.6673 65.8051 31.5894 65.8457 31.521C65.8863 31.4527 65.9446 31.3964 66.0146 31.358L70.2068 29.011C70.5151 28.8379 70.9002 29.0538 70.9002 29.4001V29.7677C70.9002 31.3588 72.6754 32.3541 74.0958 31.5575L78.9355 28.8486C79.2578 28.6726 79.5267 28.4137 79.7139 28.0991C79.9012 27.7845 80 27.4257 80 27.0602C80 26.6947 79.9012 26.3359 79.7139 26.0213C79.5267 25.7067 79.2578 25.4478 78.9355 25.2718V25.2711Z" fill="black"/>
</svg>
