<svg width="500" height="551" viewBox="0 0 500 551" fill="none" xmlns="http://www.w3.org/2000/svg">
<g clip-path="url(#clip0_1_9)">
<path d="M98.125 91.0361C98.125 95.5846 97.2562 99.8521 95.5186 103.838C93.7809 107.825 91.4045 111.326 88.3892 114.341C85.425 117.305 81.9497 119.656 77.9634 121.394C73.9771 123.131 69.7096 124 65.1611 124H10.1958V14.0693H65.1611C69.7096 14.0693 73.9771 14.9382 77.9634 16.6758C81.9497 18.4134 85.425 20.7899 88.3892 23.8052C91.4045 26.7694 93.7809 30.2446 95.5186 34.231C97.2562 38.2173 98.125 42.4847 98.125 47.0332C98.125 49.0775 97.8439 51.1729 97.2817 53.3193C96.7196 55.4658 95.9274 57.5356 94.9053 59.5288C93.8831 61.522 92.6566 63.3363 91.2256 64.9717C89.7946 66.6071 88.2103 67.9614 86.4727 69.0347C88.2614 70.0057 89.8713 71.3345 91.3022 73.021C92.7332 74.6564 93.9598 76.4707 94.9819 78.4639C96.0041 80.457 96.7707 82.5524 97.2817 84.75C97.8439 86.8965 98.125 88.9919 98.125 91.0361ZM32.1973 101.999H65.1611C66.6943 101.999 68.1253 101.717 69.4541 101.155C70.7829 100.593 71.9328 99.8265 72.9038 98.8555C73.9259 97.8333 74.7181 96.6579 75.2803 95.3291C75.8424 94.0003 76.1235 92.5693 76.1235 91.0361C76.1235 89.5029 75.8424 88.0719 75.2803 86.7432C74.7181 85.4144 73.9259 84.2645 72.9038 83.2935C71.9328 82.2713 70.7829 81.4792 69.4541 80.917C68.1253 80.3548 66.6943 80.0737 65.1611 80.0737H32.1973V101.999ZM32.1973 58.0723H65.1611C66.6943 58.0723 68.1253 57.7912 69.4541 57.229C70.7829 56.6668 71.9328 55.9002 72.9038 54.9292C73.9259 53.9071 74.7181 52.7316 75.2803 51.4028C75.8424 50.0229 76.1235 48.5664 76.1235 47.0332C76.1235 45.5 75.8424 44.069 75.2803 42.7402C74.7181 41.4115 73.9259 40.2616 72.9038 39.2905C71.9328 38.2684 70.7829 37.4762 69.4541 36.9141C68.1253 36.3519 66.6943 36.0708 65.1611 36.0708H32.1973V58.0723ZM191.727 124H114.76V14.0693H136.762V101.999H191.727V124ZM267.927 80.0737V58.0723C267.927 55.057 267.34 52.2205 266.164 49.563C265.04 46.8543 263.481 44.5034 261.488 42.5103C259.495 40.5171 257.144 38.9583 254.435 37.834C251.778 36.6585 248.941 36.0708 245.926 36.0708C242.91 36.0708 240.049 36.6585 237.34 37.834C234.682 38.9583 232.357 40.5171 230.364 42.5103C228.371 44.5034 226.786 46.8543 225.611 49.563C224.486 52.2205 223.924 55.057 223.924 58.0723V80.0737H267.927ZM289.929 124H267.927V101.999H223.924V124H202V58.0723C202 51.9906 203.149 46.2922 205.449 40.9771C207.749 35.6108 210.867 30.9346 214.802 26.9482C218.788 22.9619 223.439 19.8188 228.754 17.519C234.12 15.2192 239.844 14.0693 245.926 14.0693C252.007 14.0693 257.706 15.2192 263.021 17.519C268.387 19.8188 273.063 22.9619 277.05 26.9482C281.036 30.9346 284.179 35.6108 286.479 40.9771C288.779 46.2922 289.929 51.9906 289.929 58.0723V124ZM396.793 112.731C391.682 117.126 385.958 120.499 379.621 122.85C373.284 125.201 366.717 126.376 359.919 126.376C354.707 126.376 349.673 125.687 344.817 124.307C340.013 122.978 335.49 121.087 331.249 118.634C327.058 116.13 323.225 113.14 319.75 109.665C316.274 106.189 313.285 102.356 310.78 98.1655C308.327 93.9237 306.411 89.4007 305.031 84.5967C303.702 79.7415 303.038 74.7075 303.038 69.4946C303.038 64.2817 303.702 59.2477 305.031 54.3926C306.411 49.5374 308.327 45.0145 310.78 40.8237C313.285 36.5819 316.274 32.7233 319.75 29.248C323.225 25.7728 327.058 22.8086 331.249 20.3555C335.49 17.8512 340.013 15.9347 344.817 14.606C349.673 13.2261 354.707 12.5361 359.919 12.5361C366.717 12.5361 373.284 13.7116 379.621 16.0625C385.958 18.3623 391.682 21.7354 396.793 26.1816L385.141 45.3467C381.921 41.8714 378.113 39.2139 373.718 37.374C369.323 35.4831 364.723 34.5376 359.919 34.5376C355.064 34.5376 350.516 35.4575 346.274 37.2974C342.032 39.1372 338.327 41.6414 335.158 44.8101C331.99 47.9276 329.485 51.6328 327.646 55.9258C325.806 60.1676 324.886 64.6906 324.886 69.4946C324.886 74.2987 325.806 78.8216 327.646 83.0635C329.485 87.2542 331.99 90.9339 335.158 94.1025C338.327 97.2712 342.032 99.7754 346.274 101.615C350.516 103.455 355.064 104.375 359.919 104.375C364.723 104.375 369.323 103.455 373.718 101.615C378.113 99.7243 381.921 97.0412 385.141 93.5659L396.793 112.731ZM431.597 124H409.595V14.0693H431.597V69.0347L472.533 14.0693H497.524L462.797 60.4487L497.524 124H472.533L448.385 79.5371L431.597 101.999V124Z" fill="white"/>
<path d="M70.532 142.354V151.286H23.1V191.48H63.14V200.412H23.1V250H12.32V142.354H70.532ZM145.555 250L118.913 205.032H99.0473V250H88.2673V142.354H120.607C132.619 142.354 141.705 145.229 147.865 150.978C154.128 156.727 157.259 164.273 157.259 173.616C157.259 181.419 155.001 188.092 150.483 193.636C146.069 199.077 139.498 202.619 130.771 204.262L158.491 250H145.555ZM99.0473 196.254H120.761C129.18 196.254 135.494 194.201 139.703 190.094C144.015 185.987 146.171 180.495 146.171 173.616C146.171 166.532 144.118 161.091 140.011 157.292C135.905 153.391 129.437 151.44 120.607 151.44H99.0473V196.254ZM189.432 142.354V250H178.652V142.354H189.432ZM245.721 142.354C257.631 142.354 267.846 144.51 276.367 148.822C284.889 153.134 291.408 159.345 295.925 167.456C300.443 175.567 302.701 185.217 302.701 196.408C302.701 207.496 300.443 217.095 295.925 225.206C291.408 233.214 284.889 239.374 276.367 243.686C267.846 247.895 257.631 250 245.721 250H213.843V142.354H245.721ZM245.721 241.068C260.711 241.068 272.107 237.167 279.909 229.364C287.815 221.459 291.767 210.473 291.767 196.408C291.767 182.24 287.815 171.203 279.909 163.298C272.107 155.29 260.711 151.286 245.721 151.286H224.623V241.068H245.721ZM384.946 224.436H335.974L326.58 250H315.184L354.454 143.74H366.62L405.736 250H394.34L384.946 224.436ZM381.712 215.504L360.46 157.292L339.208 215.504H381.712ZM494.185 142.354L459.689 208.112V250H448.909V208.112L414.105 142.354H426.271L454.299 198.256L482.173 142.354H494.185Z" fill="white"/>
<path d="M27.176 352.602C22.7613 352.602 18.8053 351.885 15.308 350.452C11.8107 349.019 9.00133 346.897 6.88 344.088C4.816 341.279 3.72667 337.896 3.612 333.94H19.264C19.4933 336.176 20.2673 337.896 21.586 339.1C22.9047 340.247 24.6247 340.82 26.746 340.82C28.9247 340.82 30.6447 340.333 31.906 339.358C33.1673 338.326 33.798 336.921 33.798 335.144C33.798 333.653 33.282 332.421 32.25 331.446C31.2753 330.471 30.0427 329.669 28.552 329.038C27.1187 328.407 25.0547 327.691 22.36 326.888C18.4613 325.684 15.2793 324.48 12.814 323.276C10.3487 322.072 8.22733 320.295 6.45 317.944C4.67267 315.593 3.784 312.526 3.784 308.742C3.784 303.123 5.81933 298.737 9.89 295.584C13.9607 292.373 19.264 290.768 25.8 290.768C32.4507 290.768 37.8113 292.373 41.882 295.584C45.9527 298.737 48.1313 303.152 48.418 308.828H32.508C32.3933 306.879 31.6767 305.359 30.358 304.27C29.0393 303.123 27.348 302.55 25.284 302.55C23.5067 302.55 22.0733 303.037 20.984 304.012C19.8947 304.929 19.35 306.277 19.35 308.054C19.35 310.003 20.2673 311.523 22.102 312.612C23.9367 313.701 26.8033 314.877 30.702 316.138C34.6007 317.457 37.754 318.718 40.162 319.922C42.6273 321.126 44.7487 322.875 46.526 325.168C48.3033 327.461 49.192 330.414 49.192 334.026C49.192 337.466 48.3033 340.591 46.526 343.4C44.806 346.209 42.2833 348.445 38.958 350.108C35.6327 351.771 31.7053 352.602 27.176 352.602ZM95.8242 341.336H73.2922L69.6802 352H54.2862L76.1302 291.628H93.1582L115.002 352H99.4362L95.8242 341.336ZM92.0402 329.984L84.5582 307.882L77.1622 329.984H92.0402ZM178.324 291.628L156.91 352H138.506L117.092 291.628H132.744L147.708 337.208L162.758 291.628H178.324ZM199.177 303.41V315.622H218.871V326.974H199.177V340.218H221.451V352H184.471V291.628H221.451V303.41H199.177ZM263.671 291.628V327.748C263.671 331.36 264.559 334.141 266.337 336.09C268.114 338.039 270.723 339.014 274.163 339.014C277.603 339.014 280.24 338.039 282.075 336.09C283.909 334.141 284.827 331.36 284.827 327.748V291.628H299.533V327.662C299.533 333.051 298.386 337.609 296.093 341.336C293.799 345.063 290.703 347.872 286.805 349.764C282.963 351.656 278.663 352.602 273.905 352.602C269.146 352.602 264.875 351.685 261.091 349.85C257.364 347.958 254.411 345.149 252.233 341.422C250.054 337.638 248.965 333.051 248.965 327.662V291.628H263.671ZM355.869 311.064C355.869 314.561 355.067 317.772 353.461 320.696C351.856 323.563 349.391 325.885 346.065 327.662C342.74 329.439 338.612 330.328 333.681 330.328H324.565V352H309.859V291.628H333.681C338.497 291.628 342.568 292.459 345.893 294.122C349.219 295.785 351.713 298.078 353.375 301.002C355.038 303.926 355.869 307.28 355.869 311.064ZM332.563 318.632C335.373 318.632 337.465 317.973 338.841 316.654C340.217 315.335 340.905 313.472 340.905 311.064C340.905 308.656 340.217 306.793 338.841 305.474C337.465 304.155 335.373 303.496 332.563 303.496H324.565V318.632H332.563ZM425.18 291.628V303.41H409.184V352H394.478V303.41H378.482V291.628H425.18ZM461.113 352.602C455.437 352.602 450.219 351.283 445.461 348.646C440.759 346.009 437.004 342.339 434.195 337.638C431.443 332.879 430.067 327.547 430.067 321.642C430.067 315.737 431.443 310.433 434.195 305.732C437.004 301.031 440.759 297.361 445.461 294.724C450.219 292.087 455.437 290.768 461.113 290.768C466.789 290.768 471.977 292.087 476.679 294.724C481.437 297.361 485.164 301.031 487.859 305.732C490.611 310.433 491.987 315.737 491.987 321.642C491.987 327.547 490.611 332.879 487.859 337.638C485.107 342.339 481.38 346.009 476.679 348.646C471.977 351.283 466.789 352.602 461.113 352.602ZM461.113 339.186C465.929 339.186 469.77 337.581 472.637 334.37C475.561 331.159 477.023 326.917 477.023 321.642C477.023 316.31 475.561 312.067 472.637 308.914C469.77 305.703 465.929 304.098 461.113 304.098C456.239 304.098 452.341 305.675 449.417 308.828C446.55 311.981 445.117 316.253 445.117 321.642C445.117 326.974 446.55 331.245 449.417 334.456C452.341 337.609 456.239 339.186 461.113 339.186Z" fill="#EC008C"/>
<path d="M128.57 406.37H56.81V438.11C59.8767 434.737 64.17 431.977 69.69 429.83C75.21 427.683 81.19 426.61 87.63 426.61C99.13 426.61 108.637 429.217 116.15 434.43C123.817 439.643 129.413 446.39 132.94 454.67C136.467 462.95 138.23 471.92 138.23 481.58C138.23 499.52 133.17 513.78 123.05 524.36C112.93 534.787 98.67 540 80.27 540C68.0033 540 57.3467 537.93 48.3 533.79C39.2533 529.497 32.2767 523.593 27.37 516.08C22.4633 508.567 19.78 499.903 19.32 490.09H57.73C58.65 494.843 60.8733 498.83 64.4 502.05C67.9267 505.117 72.7567 506.65 78.89 506.65C86.0967 506.65 91.4633 504.35 94.99 499.75C98.5167 495.15 100.28 489.017 100.28 481.35C100.28 473.837 98.44 468.087 94.76 464.1C91.08 460.113 85.7133 458.12 78.66 458.12C73.4467 458.12 69.1533 459.423 65.78 462.03C62.4067 464.483 60.1833 467.78 59.11 471.92H21.16V371.87H128.57V406.37ZM159.94 453.75C159.94 427.377 165 406.6 175.12 391.42C185.393 376.24 201.877 368.65 224.57 368.65C247.263 368.65 263.67 376.24 273.79 391.42C284.063 406.6 289.2 427.377 289.2 453.75C289.2 480.43 284.063 501.36 273.79 516.54C263.67 531.72 247.263 539.31 224.57 539.31C201.877 539.31 185.393 531.72 175.12 516.54C165 501.36 159.94 480.43 159.94 453.75ZM250.56 453.75C250.56 438.263 248.873 426.38 245.5 418.1C242.127 409.667 235.15 405.45 224.57 405.45C213.99 405.45 207.013 409.667 203.64 418.1C200.267 426.38 198.58 438.263 198.58 453.75C198.58 464.177 199.193 472.84 200.42 479.74C201.647 486.487 204.1 492.007 207.78 496.3C211.613 500.44 217.21 502.51 224.57 502.51C231.93 502.51 237.45 500.44 241.13 496.3C244.963 492.007 247.493 486.487 248.72 479.74C249.947 472.84 250.56 464.177 250.56 453.75ZM306.759 414.42C306.759 402 310.286 392.417 317.339 385.67C324.546 378.923 333.822 375.55 345.169 375.55C356.516 375.55 365.716 378.923 372.769 385.67C379.822 392.417 383.349 402 383.349 414.42C383.349 426.84 379.822 436.423 372.769 443.17C365.716 449.917 356.516 453.29 345.169 453.29C333.822 453.29 324.546 449.917 317.339 443.17C310.286 436.423 306.759 426.84 306.759 414.42ZM462.929 378.08L374.379 540H336.429L424.979 378.08H462.929ZM344.939 398.55C337.579 398.55 333.899 403.84 333.899 414.42C333.899 424.847 337.579 430.06 344.939 430.06C348.466 430.06 351.226 428.757 353.219 426.15C355.212 423.543 356.209 419.633 356.209 414.42C356.209 403.84 352.452 398.55 344.939 398.55ZM416.239 503.66C416.239 491.24 419.766 481.657 426.819 474.91C433.872 468.163 443.072 464.79 454.419 464.79C465.766 464.79 474.966 468.163 482.019 474.91C489.072 481.657 492.599 491.24 492.599 503.66C492.599 516.08 489.072 525.663 482.019 532.41C474.966 539.157 465.766 542.53 454.419 542.53C443.072 542.53 433.872 539.157 426.819 532.41C419.766 525.663 416.239 516.08 416.239 503.66ZM454.189 487.79C450.662 487.79 447.902 489.093 445.909 491.7C444.069 494.307 443.149 498.293 443.149 503.66C443.149 514.087 446.829 519.3 454.189 519.3C457.716 519.3 460.476 517.997 462.469 515.39C464.462 512.783 465.459 508.873 465.459 503.66C465.459 498.447 464.462 494.537 462.469 491.93C460.476 489.17 457.716 487.79 454.189 487.79Z" fill="#EC008C"/>
</g>
<defs>
<clipPath id="clip0_1_9">
<rect width="500" height="551" fill="white"/>
</clipPath>
</defs>
</svg>
