<svg width="550" height="580" viewBox="0 0 550 580" fill="none" xmlns="http://www.w3.org/2000/svg">
<g clip-path="url(#clip0_1_9)">
<path d="M121.777 144H87.793L60.8398 98.7852L33.7891 144H0L42.9688 73.9805L0 3.96094H33.7891L60.8398 49.1758L87.793 3.96094H121.777L78.8086 73.9805L121.777 144ZM273.828 144H245.898V44C245.898 42.0469 245.508 40.224 244.727 38.5312C244.01 36.8385 243.001 35.3737 241.699 34.1367C240.462 32.8346 238.997 31.8255 237.305 31.1094C235.612 30.3932 233.789 30.0352 231.836 30.0352C229.883 30.0352 228.06 30.3932 226.367 31.1094C224.674 31.8255 223.177 32.8346 221.875 34.1367C220.638 35.3737 219.661 36.8385 218.945 38.5312C218.229 40.224 217.871 42.0469 217.871 44V144H189.844V44C189.844 42.0469 189.486 40.224 188.77 38.5312C188.053 36.8385 187.044 35.3737 185.742 34.1367C184.505 32.8346 183.04 31.8255 181.348 31.1094C179.655 30.3932 177.832 30.0352 175.879 30.0352C173.926 30.0352 172.103 30.3932 170.41 31.1094C168.717 31.8255 167.22 32.8346 165.918 34.1367C164.681 35.3737 163.704 36.8385 162.988 38.5312C162.272 40.224 161.914 42.0469 161.914 44V144H133.887V44C133.887 38.2057 134.961 32.7695 137.109 27.6914C139.323 22.5482 142.318 18.0885 146.094 14.3125C149.935 10.4714 154.395 7.47656 159.473 5.32812C164.616 3.11458 170.085 2.00781 175.879 2.00781C181.087 2.00781 186.1 2.95182 190.918 4.83984C195.736 6.66276 200.065 9.33203 203.906 12.8477C207.747 9.33203 212.044 6.66276 216.797 4.83984C221.615 2.95182 226.628 2.00781 231.836 2.00781C237.63 2.00781 243.066 3.11458 248.145 5.32812C253.288 7.47656 257.747 10.4714 261.523 14.3125C265.365 18.0885 268.359 22.5482 270.508 27.6914C272.721 32.7695 273.828 38.2057 273.828 44V144ZM381.348 88.043V60.0156C381.348 56.1745 380.599 52.5612 379.102 49.1758C377.669 45.7253 375.684 42.7305 373.145 40.1914C370.605 37.6523 367.611 35.6667 364.16 34.2344C360.775 32.737 357.161 31.9883 353.32 31.9883C349.479 31.9883 345.833 32.737 342.383 34.2344C338.997 35.6667 336.035 37.6523 333.496 40.1914C330.957 42.7305 328.939 45.7253 327.441 49.1758C326.009 52.5612 325.293 56.1745 325.293 60.0156V88.043H381.348ZM409.375 144H381.348V115.973H325.293V144H297.363V60.0156C297.363 52.2682 298.828 45.0091 301.758 38.2383C304.688 31.4023 308.659 25.4453 313.672 20.3672C318.75 15.2891 324.674 11.2852 331.445 8.35547C338.281 5.42578 345.573 3.96094 353.32 3.96094C361.068 3.96094 368.327 5.42578 375.098 8.35547C381.934 11.2852 387.891 15.2891 392.969 20.3672C398.047 25.4453 402.051 31.4023 404.98 38.2383C407.91 45.0091 409.375 52.2682 409.375 60.0156V144ZM425.488 45.9531C425.488 40.1589 426.595 34.7227 428.809 29.6445C431.022 24.5664 434.017 20.1393 437.793 16.3633C441.634 12.5221 446.094 9.49479 451.172 7.28125C456.25 5.06771 461.686 3.96094 467.48 3.96094H531.738V31.9883H467.48C465.527 31.9883 463.704 32.3464 462.012 33.0625C460.319 33.7786 458.822 34.7878 457.52 36.0898C456.283 37.3268 455.306 38.7917 454.59 40.4844C453.874 42.1771 453.516 44 453.516 45.9531C453.516 47.9062 453.874 49.7617 454.59 51.5195C455.306 53.2122 456.283 54.7096 457.52 56.0117C458.822 57.2487 460.319 58.2253 462.012 58.9414C463.704 59.6576 465.527 60.0156 467.48 60.0156H495.508C501.302 60.0156 506.738 61.1224 511.816 63.3359C516.96 65.4844 521.419 68.4792 525.195 72.3203C529.036 76.0964 532.031 80.556 534.18 85.6992C536.393 90.7773 537.5 96.2135 537.5 102.008C537.5 107.802 536.393 113.238 534.18 118.316C532.031 123.395 529.036 127.854 525.195 131.695C521.419 135.471 516.96 138.466 511.816 140.68C506.738 142.893 501.302 144 495.508 144H433.301V115.973H495.508C497.461 115.973 499.284 115.615 500.977 114.898C502.669 114.182 504.134 113.206 505.371 111.969C506.673 110.667 507.682 109.169 508.398 107.477C509.115 105.784 509.473 103.961 509.473 102.008C509.473 100.055 509.115 98.2318 508.398 96.5391C507.682 94.8464 506.673 93.3815 505.371 92.1445C504.134 90.8424 502.669 89.8333 500.977 89.1172C499.284 88.401 497.461 88.043 495.508 88.043H467.48C461.686 88.043 456.25 86.9362 451.172 84.7227C446.094 82.5091 441.634 79.5143 437.793 75.7383C434.017 71.8971 431.022 67.4375 428.809 62.3594C426.595 57.2161 425.488 51.7474 425.488 45.9531Z" fill="white"/>
<path d="M46.72 277.12C39.36 277.12 32.8533 275.84 27.2 273.28C21.6533 270.72 17.28 267.147 14.08 262.56C10.88 257.973 9.17333 252.853 8.96 247.2H20.8C21.3333 252.64 23.7333 257.44 28 261.6C32.2667 265.653 38.5067 267.68 46.72 267.68C54.2933 267.68 60.2667 265.76 64.64 261.92C69.12 257.973 71.36 253.013 71.36 247.04C71.36 242.24 70.1333 238.4 67.68 235.52C65.2267 232.533 62.1867 230.347 58.56 228.96C54.9333 227.467 49.92 225.867 43.52 224.16C36.0533 222.133 30.1333 220.16 25.76 218.24C21.3867 216.32 17.6533 213.333 14.56 209.28C11.4667 205.227 9.92 199.733 9.92 192.8C9.92 187.04 11.4133 181.92 14.4 177.44C17.3867 172.853 21.6 169.28 27.04 166.72C32.48 164.16 38.72 162.88 45.76 162.88C56.1067 162.88 64.4267 165.44 70.72 170.56C77.12 175.573 80.8 182.08 81.76 190.08H69.6C68.8533 185.493 66.3467 181.44 62.08 177.92C57.8133 174.293 52.0533 172.48 44.8 172.48C38.08 172.48 32.48 174.293 28 177.92C23.52 181.44 21.28 186.293 21.28 192.48C21.28 197.173 22.5067 200.96 24.96 203.84C27.4133 206.72 30.4533 208.907 34.08 210.4C37.8133 211.893 42.8267 213.493 49.12 215.2C56.3733 217.227 62.24 219.253 66.72 221.28C71.2 223.2 74.9867 226.187 78.08 230.24C81.1733 234.293 82.72 239.733 82.72 246.56C82.72 251.787 81.3333 256.747 78.56 261.44C75.7867 266.133 71.68 269.92 66.24 272.8C60.8 275.68 54.2933 277.12 46.72 277.12ZM169.163 249.44H118.283L108.523 276H96.6825L137.483 165.6H150.123L190.763 276H178.923L169.163 249.44ZM165.803 240.16L143.723 179.68L121.643 240.16H165.803ZM219.938 266.88H260.098V276H208.738V164.16H219.938V266.88ZM287.281 173.28V215.04H329.681V224.32H287.281V266.72H334.481V276H276.081V164H334.481V173.28H287.281Z" fill="white"/>
<path d="M27.176 375.602C22.7613 375.602 18.8053 374.885 15.308 373.452C11.8107 372.019 9.00133 369.897 6.88 367.088C4.816 364.279 3.72667 360.896 3.612 356.94H19.264C19.4933 359.176 20.2673 360.896 21.586 362.1C22.9047 363.247 24.6247 363.82 26.746 363.82C28.9247 363.82 30.6447 363.333 31.906 362.358C33.1673 361.326 33.798 359.921 33.798 358.144C33.798 356.653 33.282 355.421 32.25 354.446C31.2753 353.471 30.0427 352.669 28.552 352.038C27.1187 351.407 25.0547 350.691 22.36 349.888C18.4613 348.684 15.2793 347.48 12.814 346.276C10.3487 345.072 8.22733 343.295 6.45 340.944C4.67267 338.593 3.784 335.526 3.784 331.742C3.784 326.123 5.81933 321.737 9.89 318.584C13.9607 315.373 19.264 313.768 25.8 313.768C32.4507 313.768 37.8113 315.373 41.882 318.584C45.9527 321.737 48.1313 326.152 48.418 331.828H32.508C32.3933 329.879 31.6767 328.359 30.358 327.27C29.0393 326.123 27.348 325.55 25.284 325.55C23.5067 325.55 22.0733 326.037 20.984 327.012C19.8947 327.929 19.35 329.277 19.35 331.054C19.35 333.003 20.2673 334.523 22.102 335.612C23.9367 336.701 26.8033 337.877 30.702 339.138C34.6007 340.457 37.754 341.718 40.162 342.922C42.6273 344.126 44.7487 345.875 46.526 348.168C48.3033 350.461 49.192 353.414 49.192 357.026C49.192 360.466 48.3033 363.591 46.526 366.4C44.806 369.209 42.2833 371.445 38.958 373.108C35.6327 374.771 31.7053 375.602 27.176 375.602ZM95.8242 364.336H73.2922L69.6802 375H54.2862L76.1302 314.628H93.1582L115.002 375H99.4362L95.8242 364.336ZM92.0402 352.984L84.5582 330.882L77.1622 352.984H92.0402ZM178.324 314.628L156.91 375H138.506L117.092 314.628H132.744L147.708 360.208L162.758 314.628H178.324ZM199.177 326.41V338.622H218.871V349.974H199.177V363.218H221.451V375H184.471V314.628H221.451V326.41H199.177ZM263.671 314.628V350.748C263.671 354.36 264.559 357.141 266.337 359.09C268.114 361.039 270.723 362.014 274.163 362.014C277.603 362.014 280.24 361.039 282.075 359.09C283.909 357.141 284.827 354.36 284.827 350.748V314.628H299.533V350.662C299.533 356.051 298.386 360.609 296.093 364.336C293.799 368.063 290.703 370.872 286.805 372.764C282.963 374.656 278.663 375.602 273.905 375.602C269.146 375.602 264.875 374.685 261.091 372.85C257.364 370.958 254.411 368.149 252.233 364.422C250.054 360.638 248.965 356.051 248.965 350.662V314.628H263.671ZM355.869 334.064C355.869 337.561 355.067 340.772 353.461 343.696C351.856 346.563 349.391 348.885 346.065 350.662C342.74 352.439 338.612 353.328 333.681 353.328H324.565V375H309.859V314.628H333.681C338.497 314.628 342.568 315.459 345.893 317.122C349.219 318.785 351.713 321.078 353.375 324.002C355.038 326.926 355.869 330.28 355.869 334.064ZM332.563 341.632C335.373 341.632 337.465 340.973 338.841 339.654C340.217 338.335 340.905 336.472 340.905 334.064C340.905 331.656 340.217 329.793 338.841 328.474C337.465 327.155 335.373 326.496 332.563 326.496H324.565V341.632H332.563ZM425.18 314.628V326.41H409.184V375H394.478V326.41H378.482V314.628H425.18ZM461.113 375.602C455.437 375.602 450.219 374.283 445.461 371.646C440.759 369.009 437.004 365.339 434.195 360.638C431.443 355.879 430.067 350.547 430.067 344.642C430.067 338.737 431.443 333.433 434.195 328.732C437.004 324.031 440.759 320.361 445.461 317.724C450.219 315.087 455.437 313.768 461.113 313.768C466.789 313.768 471.977 315.087 476.679 317.724C481.437 320.361 485.164 324.031 487.859 328.732C490.611 333.433 491.987 338.737 491.987 344.642C491.987 350.547 490.611 355.879 487.859 360.638C485.107 365.339 481.38 369.009 476.679 371.646C471.977 374.283 466.789 375.602 461.113 375.602ZM461.113 362.186C465.929 362.186 469.77 360.581 472.637 357.37C475.561 354.159 477.023 349.917 477.023 344.642C477.023 339.31 475.561 335.067 472.637 331.914C469.77 328.703 465.929 327.098 461.113 327.098C456.239 327.098 452.341 328.675 449.417 331.828C446.55 334.981 445.117 339.253 445.117 344.642C445.117 349.974 446.55 354.245 449.417 357.456C452.341 360.609 456.239 362.186 461.113 362.186Z" fill="#EC008C"/>
<path d="M128.57 429.37H56.81V461.11C59.8767 457.737 64.17 454.977 69.69 452.83C75.21 450.683 81.19 449.61 87.63 449.61C99.13 449.61 108.637 452.217 116.15 457.43C123.817 462.643 129.413 469.39 132.94 477.67C136.467 485.95 138.23 494.92 138.23 504.58C138.23 522.52 133.17 536.78 123.05 547.36C112.93 557.787 98.67 563 80.27 563C68.0033 563 57.3467 560.93 48.3 556.79C39.2533 552.497 32.2767 546.593 27.37 539.08C22.4633 531.567 19.78 522.903 19.32 513.09H57.73C58.65 517.843 60.8733 521.83 64.4 525.05C67.9267 528.117 72.7567 529.65 78.89 529.65C86.0967 529.65 91.4633 527.35 94.99 522.75C98.5167 518.15 100.28 512.017 100.28 504.35C100.28 496.837 98.44 491.087 94.76 487.1C91.08 483.113 85.7133 481.12 78.66 481.12C73.4467 481.12 69.1533 482.423 65.78 485.03C62.4067 487.483 60.1833 490.78 59.11 494.92H21.16V394.87H128.57V429.37ZM159.94 476.75C159.94 450.377 165 429.6 175.12 414.42C185.393 399.24 201.877 391.65 224.57 391.65C247.263 391.65 263.67 399.24 273.79 414.42C284.063 429.6 289.2 450.377 289.2 476.75C289.2 503.43 284.063 524.36 273.79 539.54C263.67 554.72 247.263 562.31 224.57 562.31C201.877 562.31 185.393 554.72 175.12 539.54C165 524.36 159.94 503.43 159.94 476.75ZM250.56 476.75C250.56 461.263 248.873 449.38 245.5 441.1C242.127 432.667 235.15 428.45 224.57 428.45C213.99 428.45 207.013 432.667 203.64 441.1C200.267 449.38 198.58 461.263 198.58 476.75C198.58 487.177 199.193 495.84 200.42 502.74C201.647 509.487 204.1 515.007 207.78 519.3C211.613 523.44 217.21 525.51 224.57 525.51C231.93 525.51 237.45 523.44 241.13 519.3C244.963 515.007 247.493 509.487 248.72 502.74C249.947 495.84 250.56 487.177 250.56 476.75ZM306.759 437.42C306.759 425 310.286 415.417 317.339 408.67C324.546 401.923 333.822 398.55 345.169 398.55C356.516 398.55 365.716 401.923 372.769 408.67C379.822 415.417 383.349 425 383.349 437.42C383.349 449.84 379.822 459.423 372.769 466.17C365.716 472.917 356.516 476.29 345.169 476.29C333.822 476.29 324.546 472.917 317.339 466.17C310.286 459.423 306.759 449.84 306.759 437.42ZM462.929 401.08L374.379 563H336.429L424.979 401.08H462.929ZM344.939 421.55C337.579 421.55 333.899 426.84 333.899 437.42C333.899 447.847 337.579 453.06 344.939 453.06C348.466 453.06 351.226 451.757 353.219 449.15C355.212 446.543 356.209 442.633 356.209 437.42C356.209 426.84 352.452 421.55 344.939 421.55ZM416.239 526.66C416.239 514.24 419.766 504.657 426.819 497.91C433.872 491.163 443.072 487.79 454.419 487.79C465.766 487.79 474.966 491.163 482.019 497.91C489.072 504.657 492.599 514.24 492.599 526.66C492.599 539.08 489.072 548.663 482.019 555.41C474.966 562.157 465.766 565.53 454.419 565.53C443.072 565.53 433.872 562.157 426.819 555.41C419.766 548.663 416.239 539.08 416.239 526.66ZM454.189 510.79C450.662 510.79 447.902 512.093 445.909 514.7C444.069 517.307 443.149 521.293 443.149 526.66C443.149 537.087 446.829 542.3 454.189 542.3C457.716 542.3 460.476 540.997 462.469 538.39C464.462 535.783 465.459 531.873 465.459 526.66C465.459 521.447 464.462 517.537 462.469 514.93C460.476 512.17 457.716 510.79 454.189 510.79Z" fill="#EC008C"/>
</g>
<defs>
<clipPath id="clip0_1_9">
<rect width="550" height="580" fill="white"/>
</clipPath>
</defs>
</svg>
