<svg width="84" height="58" viewBox="0 0 84 58" fill="none" xmlns="http://www.w3.org/2000/svg">
<rect x="0.5" y="0.5" width="83" height="57" rx="3.5" fill="white" stroke="#F3F3F3"/>
<path d="M14.2057 23.9415H13.161V24.2213H13.9832L16.027 32.6272H5.4762L7.51999 24.2213H8.34284V23.9415H7.29757L5 33.0011H16.5032L14.2057 23.9415Z" fill="#1F3A6A"/>
<path d="M12.7642 20.2751H8.73852C8.62071 20.2752 8.50775 20.3221 8.42442 20.4054C8.34109 20.4886 8.29418 20.6016 8.29397 20.7194V24.668H8.66783V20.7194C8.66814 20.7008 8.67569 20.683 8.68889 20.6698C8.70209 20.6567 8.71989 20.6492 8.73852 20.649H9.54799V23.518H8.79643L9.87335 24.668H11.6293L12.7059 23.518H11.9546V20.649H12.7642C12.7829 20.6491 12.8008 20.6566 12.814 20.6697C12.8273 20.6829 12.8349 20.7007 12.8352 20.7194V24.668H13.2086V20.7194C13.2084 20.6016 13.1616 20.4887 13.0783 20.4054C12.995 20.3221 12.882 20.2752 12.7642 20.2751Z" fill="#5DC4E9"/>
<path d="M9.90566 29.5454H11.5975C11.6238 29.5457 11.65 29.5405 11.6742 29.5301C11.6985 29.5198 11.7203 29.5046 11.7384 29.4854C11.7565 29.4663 11.7704 29.4436 11.7793 29.4187C11.7882 29.3939 11.7919 29.3675 11.7901 29.3412L11.725 28.2328C11.721 28.1778 11.6966 28.1264 11.6565 28.0886C11.6164 28.0508 11.5636 28.0294 11.5085 28.0286H9.99416C9.93906 28.0294 9.88626 28.0508 9.84618 28.0886C9.80609 28.1264 9.78164 28.1778 9.77765 28.2328L9.71258 29.3412C9.71078 29.3676 9.71446 29.394 9.72338 29.4188C9.7323 29.4437 9.74627 29.4664 9.76441 29.4856C9.78255 29.5048 9.80446 29.52 9.82878 29.5303C9.85309 29.5406 9.87927 29.5457 9.90566 29.5454Z" fill="#1F3A6A"/>
<path d="M9.06143 28.0286H7.53334C7.4762 28.0305 7.42129 28.0512 7.37705 28.0875C7.33282 28.1237 7.3017 28.1734 7.2885 28.2291L7.06371 29.3448C7.05754 29.3693 7.05719 29.3948 7.06267 29.4194C7.06816 29.444 7.07933 29.467 7.0953 29.4865C7.11127 29.506 7.13158 29.5215 7.15461 29.5317C7.17764 29.5419 7.20275 29.5466 7.22792 29.5454H8.93158C8.98708 29.5443 9.04029 29.5231 9.08118 29.4855C9.12207 29.448 9.14783 29.3968 9.15359 29.3416L9.24824 28.2324C9.25089 28.2064 9.24801 28.1801 9.23979 28.1554C9.23157 28.1306 9.2182 28.1078 9.20056 28.0886C9.18291 28.0693 9.16139 28.054 9.13741 28.0437C9.11343 28.0333 9.08754 28.0282 9.06143 28.0286Z" fill="#1F3A6A"/>
<path d="M9.9741 27.5879H11.5294C11.5505 27.5881 11.5714 27.5839 11.5908 27.5757C11.6102 27.5674 11.6277 27.5552 11.6422 27.5399C11.6566 27.5246 11.6678 27.5064 11.6749 27.4865C11.682 27.4667 11.6849 27.4456 11.6835 27.4245L11.6317 26.5377C11.6285 26.4938 11.6089 26.4526 11.5769 26.4224C11.5448 26.3922 11.5026 26.375 11.4585 26.3744H10.045C10.001 26.375 9.95871 26.3921 9.92664 26.4224C9.89458 26.4526 9.87501 26.4938 9.87182 26.5377L9.82 27.4245C9.81856 27.4456 9.82149 27.4667 9.82861 27.4865C9.83572 27.5064 9.84686 27.5246 9.86134 27.5399C9.87581 27.5552 9.8933 27.5674 9.9127 27.5757C9.93211 27.5839 9.95301 27.5881 9.9741 27.5879Z" fill="#1F3A6A"/>
<path d="M9.25098 26.3744H7.8218C7.77609 26.376 7.73216 26.3925 7.69678 26.4215C7.66139 26.4505 7.6365 26.4903 7.62594 26.5348L7.44635 27.4274C7.44142 27.447 7.44113 27.4674 7.44552 27.4871C7.44991 27.5067 7.45884 27.5251 7.47161 27.5407C7.48438 27.5563 7.50062 27.5687 7.51904 27.5769C7.53746 27.5851 7.55754 27.5888 7.57767 27.5878H9.14711C9.19148 27.587 9.23402 27.57 9.26671 27.5399C9.29939 27.5099 9.31997 27.469 9.32457 27.4248L9.40053 26.5375C9.40268 26.5167 9.4004 26.4957 9.39383 26.4758C9.38726 26.456 9.37656 26.4377 9.36243 26.4223C9.34829 26.4069 9.33105 26.3947 9.31184 26.3864C9.29263 26.3781 9.27189 26.3741 9.25098 26.3744Z" fill="#1F3A6A"/>
<path d="M13.9214 27.5878C13.9415 27.5888 13.9616 27.5851 13.98 27.5769C13.9984 27.5687 14.0147 27.5563 14.0274 27.5407C14.0402 27.5251 14.0491 27.5068 14.0535 27.4871C14.0579 27.4674 14.0576 27.447 14.0526 27.4275L13.8721 26.5348C13.8615 26.4903 13.8366 26.4505 13.8012 26.4215C13.7657 26.3925 13.7218 26.376 13.676 26.3744H12.2524C12.2315 26.374 12.2108 26.3781 12.1915 26.3864C12.1723 26.3946 12.1551 26.4068 12.1409 26.4223C12.1268 26.4377 12.1161 26.4559 12.1095 26.4757C12.1029 26.4956 12.1006 26.5166 12.1028 26.5374L12.1787 27.4248C12.1833 27.4689 12.2039 27.5098 12.2365 27.5399C12.2692 27.5699 12.3118 27.5869 12.3561 27.5878L13.9214 27.5878Z" fill="#1F3A6A"/>
<path d="M10.0421 25.9861H11.4618C11.4802 25.9863 11.4985 25.9827 11.5155 25.9754C11.5325 25.9682 11.5478 25.9576 11.5604 25.9441C11.5731 25.9307 11.5828 25.9148 11.5891 25.8974C11.5953 25.8801 11.5978 25.8616 11.5966 25.8432L11.5566 25.1585C11.5539 25.12 11.5368 25.084 11.5087 25.0575C11.4806 25.031 11.4436 25.0161 11.4051 25.0156H10.0987C10.0602 25.0161 10.0232 25.0311 9.99511 25.0575C9.96705 25.084 9.94997 25.1201 9.94724 25.1585L9.90719 25.8432C9.90594 25.8616 9.90851 25.8801 9.91474 25.8974C9.92097 25.9148 9.93073 25.9307 9.94339 25.9441C9.95606 25.9576 9.97136 25.9682 9.98834 25.9754C10.0053 25.9827 10.0236 25.9863 10.0421 25.9861Z" fill="#1F3A6A"/>
<path d="M13.6208 25.9861C13.6384 25.987 13.656 25.9837 13.6721 25.9765C13.6882 25.9694 13.7024 25.9585 13.7136 25.9449C13.7247 25.9312 13.7325 25.9152 13.7364 25.898C13.7402 25.8807 13.7399 25.8629 13.7356 25.8458L13.5961 25.156C13.5868 25.117 13.565 25.0822 13.534 25.0569C13.503 25.0315 13.4646 25.017 13.4246 25.0156H12.1077C12.0894 25.0153 12.0712 25.0189 12.0544 25.0261C12.0376 25.0333 12.0225 25.044 12.0101 25.0575C11.9977 25.071 11.9883 25.0869 11.9826 25.1043C11.9768 25.1217 11.9748 25.1401 11.9766 25.1583L12.0353 25.8435C12.0393 25.8821 12.0573 25.9179 12.086 25.9442C12.1146 25.9705 12.1518 25.9854 12.1907 25.9861H13.6208Z" fill="#1F3A6A"/>
<path d="M9.39487 25.0156H8.07163C8.03161 25.017 7.99314 25.0314 7.96214 25.0568C7.93115 25.0822 7.90934 25.117 7.90008 25.156L7.76131 25.8458C7.75701 25.8629 7.75678 25.8808 7.76063 25.898C7.76448 25.9152 7.77231 25.9312 7.78349 25.9449C7.79466 25.9585 7.80888 25.9694 7.825 25.9765C7.84112 25.9837 7.85869 25.987 7.8763 25.9861H9.31205C9.35089 25.9854 9.38813 25.9705 9.41675 25.9442C9.44537 25.9179 9.4634 25.8821 9.46745 25.8435L9.52607 25.1583C9.52793 25.1401 9.52591 25.1217 9.52013 25.1043C9.51435 25.0869 9.50495 25.0709 9.49255 25.0574C9.48015 25.044 9.46503 25.0333 9.4482 25.026C9.43136 25.0188 9.41318 25.0153 9.39487 25.0156Z" fill="#1F3A6A"/>
<path d="M14.2729 29.5454C14.2981 29.5466 14.3232 29.5419 14.3462 29.5317C14.3692 29.5215 14.3895 29.506 14.4055 29.4865C14.4214 29.467 14.4326 29.444 14.438 29.4194C14.4435 29.3948 14.4431 29.3693 14.4369 29.3449L14.2113 28.2291C14.198 28.1734 14.1669 28.1237 14.1226 28.0875C14.0784 28.0513 14.0234 28.0306 13.9663 28.0286H12.4419C12.4158 28.0281 12.3898 28.0333 12.3658 28.0436C12.3418 28.0539 12.3202 28.0692 12.3026 28.0884C12.2849 28.1077 12.2715 28.1305 12.2633 28.1553C12.255 28.1801 12.2521 28.2064 12.2548 28.2324L12.3498 29.3416C12.3555 29.3968 12.3813 29.448 12.4222 29.4855C12.4631 29.5231 12.5163 29.5443 12.5718 29.5454H14.2729Z" fill="#1F3A6A"/>
<path d="M11.5807 30.0479H9.9227C9.85659 30.0488 9.79324 30.0745 9.74515 30.1199C9.69706 30.1652 9.66773 30.227 9.66295 30.2929L9.58079 31.6989C9.57862 31.7304 9.58301 31.7621 9.59368 31.7919C9.60434 31.8217 9.62105 31.8489 9.64276 31.8719C9.66446 31.8949 9.6907 31.9132 9.71981 31.9256C9.74892 31.938 9.78027 31.9442 9.8119 31.9439H11.6915C11.7231 31.9442 11.7545 31.938 11.7836 31.9256C11.8127 31.9132 11.8389 31.8949 11.8606 31.8719C11.8823 31.8489 11.8991 31.8217 11.9097 31.7919C11.9204 31.7621 11.9248 31.7304 11.9226 31.6989L11.8404 30.2929C11.8357 30.227 11.8063 30.1652 11.7582 30.1199C11.7102 30.0745 11.6468 30.0488 11.5807 30.0479Z" fill="#1F3A6A"/>
<path d="M8.83994 30.0478H7.17053C7.10196 30.0502 7.03606 30.0751 6.98298 30.1185C6.92989 30.162 6.89256 30.2217 6.87671 30.2885L6.59206 31.7033C6.58466 31.7326 6.58424 31.7633 6.59083 31.7928C6.59742 31.8223 6.61083 31.8498 6.62998 31.8732C6.64914 31.8966 6.67351 31.9152 6.70115 31.9275C6.72878 31.9397 6.7589 31.9453 6.7891 31.9439H8.67756C8.74413 31.9426 8.80794 31.9171 8.85697 31.872C8.906 31.827 8.93687 31.7656 8.94376 31.6993L9.0642 30.2924C9.06737 30.2612 9.06391 30.2297 9.05404 30.2C9.04417 30.1702 9.02812 30.1429 9.00694 30.1198C8.98576 30.0967 8.95992 30.0783 8.93114 30.0659C8.90236 30.0535 8.87128 30.0474 8.83994 30.0478Z" fill="#1F3A6A"/>
<path d="M14.6245 30.2884C14.6085 30.2217 14.5711 30.162 14.518 30.1185C14.4649 30.0751 14.399 30.0502 14.3304 30.0479H12.6631C12.6317 30.0473 12.6005 30.0534 12.5717 30.0658C12.5429 30.0782 12.517 30.0965 12.4957 30.1196C12.4745 30.1427 12.4584 30.1701 12.4485 30.1998C12.4386 30.2296 12.4351 30.2612 12.4383 30.2924L12.5587 31.6993C12.5656 31.7656 12.5965 31.827 12.6455 31.872C12.6945 31.9171 12.7583 31.9426 12.8249 31.9439H14.7134C14.7436 31.9454 14.7737 31.9398 14.8013 31.9275C14.8289 31.9152 14.8533 31.8966 14.8725 31.8732C14.8916 31.8498 14.905 31.8223 14.9115 31.7928C14.9181 31.7632 14.9176 31.7326 14.9102 31.7033L14.6245 30.2884Z" fill="#1F3A6A"/>
<path d="M35.6806 23.9431H34.0877V33.0011H35.6806V23.9431ZM30.5042 28.5318C30.5154 29.2162 30.334 29.89 29.9807 30.4763C29.8104 30.8008 29.5669 31.081 29.2693 31.2949C28.9718 31.5088 28.6286 31.6504 28.2668 31.7084C27.905 31.7664 27.5347 31.7393 27.1852 31.6292C26.8357 31.5191 26.5167 31.329 26.2536 31.0741C25.6502 30.3423 25.3546 29.4049 25.4291 28.4594C25.3894 27.955 25.4634 27.4482 25.6454 26.9761C25.8274 26.504 26.1129 26.0788 26.481 25.7316C26.8614 25.3627 27.3699 25.1552 27.8998 25.1526C28.4484 25.1674 28.9766 25.3631 29.4024 25.7093C30.5562 26.6735 30.5042 28.4441 30.5042 28.5318ZM31.3166 35.5365C31.9913 34.6454 32.0446 33.7203 32.0932 31.8221L32.073 23.9427H30.5562V25.342C30.3567 25.0224 30.1101 24.7347 29.8249 24.4885C29.2155 23.991 28.4451 23.7337 27.659 23.7653C27.058 23.766 26.4664 23.9139 25.9358 24.1961C25.4052 24.4784 24.9518 24.8863 24.6154 25.3843C23.9923 26.3128 23.678 27.4142 23.7173 28.5318C23.7077 29.1785 23.7983 29.8229 23.9859 30.4419C24.2108 31.2136 24.6507 31.9054 25.2543 32.4363C25.9295 32.9866 26.7905 33.2561 27.659 33.1893C28.4452 33.1595 29.2024 32.8847 29.8248 32.4033C30.0584 32.2046 30.2636 31.9749 30.4347 31.7205L30.4219 32.9633C30.4097 33.3734 30.3388 33.7797 30.2114 34.1697C30.1245 34.4241 29.9863 34.6579 29.8052 34.8566C29.5448 35.1373 29.2242 35.3554 28.8674 35.4944C28.5107 35.6335 28.127 35.6899 27.7453 35.6595C26.9613 35.6566 26.183 35.5267 25.4405 35.275C25.1293 35.1578 24.8298 35.0119 24.5459 34.839L24.3772 36.4165C24.6322 36.5191 24.8198 36.5886 25.0917 36.6817C25.9185 36.9346 26.7782 37.0635 27.6428 37.0643C28.5415 37.0967 29.4333 36.8971 30.2324 36.4846C30.6604 36.254 31.0309 35.9299 31.3166 35.5365ZM33.9811 21.788H35.7252V20H33.9811V21.788ZM41.5966 25.2877C41.9727 25.2919 42.3448 25.3653 42.6943 25.5043V23.9131C42.6141 23.9131 42.1256 23.8375 41.7193 23.8375C41.3164 23.8192 40.9146 23.8933 40.5448 24.0544C40.1749 24.2155 39.8469 24.4591 39.5859 24.7666C39.4235 24.9854 39.2757 25.2146 39.1433 25.4528L39.0617 23.9428H37.5382C37.5867 25.0786 37.6279 25.8698 37.6279 26.9885C37.6279 28.3008 37.6029 29.2265 37.6029 30.5259V32.9994H39.2479V28.5662C39.2971 27.7073 39.3471 26.5704 40.2276 25.7978C40.6027 25.4602 41.0921 25.2779 41.5966 25.2877ZM49.9232 28.3847C49.9232 29.3744 49.6156 30.8244 48.3997 31.5106C48.0405 31.7059 47.6405 31.8141 47.2319 31.8265C46.8232 31.8389 46.4174 31.7552 46.047 31.5821C45.8913 31.4992 45.7428 31.4035 45.603 31.296C45.2198 30.9789 44.9237 30.5692 44.7428 30.1058C44.5177 29.5504 44.4151 28.953 44.4418 28.3543C44.4321 27.8671 44.5248 27.3833 44.7139 26.9342C44.903 26.4851 45.1843 26.0807 45.5396 25.7472C46.0348 25.3231 46.6669 25.093 47.3188 25.0994C47.8382 25.1051 48.3426 25.2738 48.7609 25.5817C49.1792 25.8896 49.4902 26.321 49.65 26.8152C49.8301 27.3189 49.9225 27.8497 49.9232 28.3847ZM50.2775 32.0031C50.7295 31.513 51.08 30.9383 51.3088 30.312C51.5375 29.6857 51.6399 29.0203 51.61 28.3543C51.6365 27.5195 51.4346 26.6934 51.0262 25.9649C50.6178 25.2364 50.0183 24.6332 49.2923 24.2203C48.2633 23.7464 47.0984 23.6574 46.0093 23.9696C44.9203 24.2817 43.9794 24.9742 43.3576 25.9213C42.9366 26.7147 42.72 27.6005 42.7274 28.4987C42.6844 29.1714 42.7878 29.8454 43.0304 30.4743C43.273 31.1032 43.6491 31.6721 44.1328 32.1416C44.3136 32.2973 44.5065 32.4383 44.7097 32.5632C45.441 33.007 46.2893 33.2194 47.1434 33.1725C47.7996 33.1956 48.4529 33.0749 49.0576 32.819C49.511 32.6246 49.9246 32.3479 50.2775 32.0031Z" fill="#1F3A6A"/>
<path d="M53.0142 25.8686C53.0628 27.6196 53.0628 28.8643 53.0628 30.624C53.0628 32.8186 53.0264 35.015 53.0142 37.2072H54.6315V31.7758C54.7862 31.9813 54.9572 32.174 55.143 32.3519C55.7597 32.8925 56.5549 33.1853 57.3749 33.1737C57.9117 33.1764 58.4431 33.0674 58.9355 32.8536C59.4278 32.6399 59.8704 32.3262 60.235 31.9323C61.1069 30.8989 61.5508 29.5714 61.4759 28.2214C61.4692 27.5436 61.3464 26.872 61.1129 26.2357C60.858 25.489 60.3712 24.8433 59.7233 24.393C59.0755 23.9426 58.3006 23.7112 57.5119 23.7325C56.6159 23.7201 55.7498 24.0544 55.0944 24.6656C54.8801 24.8608 54.6918 25.0828 54.5343 25.3261L54.4642 23.943H52.94C52.9819 24.6656 52.9886 25.1527 53.0142 25.8686ZM54.6032 28.3941C54.6046 27.9665 54.6673 27.5414 54.7894 27.1317C54.9269 26.5802 55.2405 26.0886 55.6826 25.7315C56.1247 25.3744 56.6713 25.1712 57.2393 25.1527C57.7122 25.1585 58.173 25.3029 58.5646 25.5681C58.9562 25.8332 59.2614 26.2075 59.4422 26.6445C59.7025 27.2263 59.8171 27.8627 59.7762 28.4987C59.7772 28.9742 59.6976 29.4464 59.5408 29.8953C59.3991 30.4184 59.0913 30.8813 58.6639 31.2145C58.2364 31.5476 57.7124 31.733 57.1705 31.7427C56.6166 31.721 56.0848 31.5198 55.6553 31.1694C55.2258 30.819 54.9219 30.3384 54.7894 29.8002C54.6562 29.3437 54.5934 28.8695 54.6032 28.3941Z" fill="#1F3A6A"/>
<path d="M78.1638 23.9421L76.1439 28.8446L75.2305 31.2188L75.1676 31.3467C74.9381 30.6671 74.6218 29.819 74.333 29.0132L72.4604 23.9419H70.7223L74.3603 32.9981L72.5876 37.2069H74.2095L79.8797 23.9421H78.1638Z" fill="#1F3A6A"/>
<path d="M69.5324 25.1162C69.0602 24.3256 67.8421 23.7688 66.4198 23.7688C65.4169 23.7266 64.4253 23.9938 63.5793 24.5341V25.9576C64.3358 25.4565 65.2096 25.1607 66.115 25.0994C66.5579 25.0776 66.998 25.1808 67.385 25.3972C67.7721 25.6136 68.0904 25.9346 68.3037 26.3233C68.4223 26.7102 68.4775 27.1137 68.4671 27.5183C68.048 27.4975 67.6013 27.4804 67.1661 27.4804C66.1298 27.4235 65.0931 27.5856 64.1237 27.9561C63.6349 28.1449 63.2155 28.4785 62.9215 28.9123C62.6275 29.346 62.4731 29.8592 62.4788 30.3831C62.4711 30.7788 62.5487 31.1714 62.7065 31.5343C62.8643 31.8972 63.0984 32.2218 63.393 32.486C63.9351 32.8961 64.595 33.1204 65.2748 33.1258C66.1066 33.1675 66.9316 32.9578 67.6425 32.5239C67.9963 32.239 68.318 31.9164 68.602 31.5619V32.9994H69.9858V27.1525C70.0153 26.4458 69.859 25.7437 69.5324 25.1162ZM68.5068 28.9199C68.5228 29.3324 68.4764 29.745 68.3693 30.1437C68.2835 30.4247 68.146 30.6872 67.9638 30.9176C67.7182 31.2238 67.4057 31.4696 67.0501 31.6359C66.6946 31.8022 66.3056 31.8847 65.9132 31.877C65.1683 31.877 64.1772 31.4892 64.1772 30.4258C64.1772 29.3699 65.4094 28.8128 66.0926 28.699C66.4888 28.6403 66.8893 28.6155 67.2897 28.625C67.6953 28.625 68.1015 28.6372 68.5068 28.6714V28.9199Z" fill="#1F3A6A"/>
</svg>
